<?xml version="1.0" encoding="UTF-8" standalone="no"?>
<svg
   height="16"
   viewBox="0 0 16 16"
   width="16"
   version="1.1"
   id="svg1"
   sodipodi:docname="Label.svg"
   inkscape:version="1.3 (0e150ed6c4, 2023-07-21)"
   xmlns:inkscape="http://www.inkscape.org/namespaces/inkscape"
   xmlns:sodipodi="http://sodipodi.sourceforge.net/DTD/sodipodi-0.dtd"
   xmlns="http://www.w3.org/2000/svg"
   xmlns:svg="http://www.w3.org/2000/svg">
  <defs
     id="defs1" />
  <sodipodi:namedview
     id="namedview1"
     pagecolor="#ffffff"
     bordercolor="#999999"
     borderopacity="1"
     inkscape:showpageshadow="2"
     inkscape:pageopacity="0"
     inkscape:pagecheckerboard="0"
     inkscape:deskcolor="#d1d1d1"
     showguides="true"
     inkscape:zoom="25.65625"
     inkscape:cx="8.3020706"
     inkscape:cy="11.127893"
     inkscape:window-width="1920"
     inkscape:window-height="1017"
     inkscape:window-x="-8"
     inkscape:window-y="-8"
     inkscape:window-maximized="1"
     inkscape:current-layer="svg1">
    <sodipodi:guide
       position="1.0377588,8.0048721"
       orientation="0,-1"
       id="guide1"
       inkscape:locked="false" />
  </sodipodi:namedview>
  <path
     id="path4"
     style="fill:#8eef97"
     inkscape:label="path4"
     d="M 6 3 C 5.7347997 3.0000401 5.4804738 3.1054236 5.2929688 3.2929688 L 1.2929688 7.2929688 C 0.90254633 7.6834747 0.90254633 8.3165253 1.2929688 8.7070312 L 5.2929688 12.707031 C 5.4804738 12.894577 5.7347997 12.99996 6 13 L 14 13 C 14.552282 13 15 12.552282 15 12 L 15 4 C 15 3.447717 14.552282 3 14 3 L 6 3 z M 9.8554688 4.3359375 L 11.177734 4.3359375 L 13.890625 11.667969 L 12.833984 11.667969 L 12.103516 9.625 L 8.8789062 9.625 L 8.1484375 11.667969 L 7.1425781 11.667969 L 9.8554688 4.3359375 z M 10.490234 5.1894531 L 9.1796875 8.7871094 L 11.796875 8.7871094 L 10.490234 5.1894531 z M 5 7 C 6.3333288 7 6.3333288 9 5 9 C 3.6666712 9 3.6666712 7 5 7 z " />
</svg>
